<svg xmlns="http://www.w3.org/2000/svg" xmlns:xlink="http://www.w3.org/1999/xlink" version="1.1" x="0px" y="0px" viewBox="0 0 100 125" style="enable-background:new 0 0 100 100;" xml:space="preserve"><style type="text/css">
	.st0{fill:none;stroke:#c67927;stroke-width:2;stroke-miterlimit:10;}
	.st1{fill:none;stroke:#c67927;stroke-width:2;stroke-linecap:round;stroke-linejoin:round;stroke-miterlimit:10;}
	.st2{fill:none;stroke:#c67927;stroke-width:2.2;stroke-linecap:round;stroke-linejoin:round;stroke-miterlimit:10;}
</style><path d="M22.209,58.567c3.183,0,10.272-1.899,16.555-3.794c-5.783,3.103-12.139,6.773-14.389,9.024  c-2.233,2.232-3.748,4.937-4.264,7.612c-0.543,2.818,0.071,5.284,1.729,6.942c1.283,1.283,3.047,1.898,5.001,1.898  c3.095,0,6.666-1.545,9.554-4.433c2.251-2.251,5.921-8.607,9.024-14.391c-1.895,6.284-3.795,13.374-3.795,16.557  c0,6.663,3.813,12.084,8.5,12.084s8.5-5.421,8.5-12.084c0-3.183-1.899-10.273-3.795-16.557c3.103,5.784,6.773,12.14,9.024,14.391  c2.888,2.888,6.459,4.433,9.554,4.433c1.954,0,3.718-0.615,5.001-1.898c1.659-1.658,2.272-4.124,1.729-6.942  c-0.516-2.676-2.03-5.38-4.264-7.612c-2.251-2.251-8.606-5.921-14.389-9.024c6.284,1.895,13.372,3.794,16.555,3.794  c6.663,0,12.084-3.813,12.084-8.5s-5.421-8.5-12.084-8.5c-3.183,0-10.272,1.899-16.555,3.794c5.783-3.103,12.139-6.773,14.389-9.024  c2.233-2.232,3.748-4.937,4.264-7.612c0.543-2.818-0.071-5.284-1.729-6.942c-3.315-3.315-9.843-2.177-14.555,2.534  c-2.251,2.25-5.921,8.606-9.024,14.39c1.895-6.284,3.795-13.373,3.795-16.556c0-6.663-3.813-12.084-8.5-12.084  s-8.5,5.421-8.5,12.084c0,3.183,1.899,10.272,3.795,16.556c-3.103-5.784-6.773-12.14-9.024-14.39  c-4.712-4.711-11.241-5.85-14.555-2.534c-1.659,1.658-2.272,4.124-1.729,6.942c0.516,2.676,2.03,5.38,4.264,7.612  c2.251,2.251,8.606,5.921,14.389,9.024c-6.284-1.895-13.372-3.794-16.555-3.794c-6.663,0-12.084,3.813-12.084,8.5  S15.546,58.567,22.209,58.567z M34.981,74.403c-3.932,3.932-9.192,5.068-11.727,2.534c-1.174-1.175-1.593-3.003-1.18-5.149  c0.441-2.288,1.76-4.624,3.714-6.577c3.25-3.25,16.406-10.049,22.113-12.921C45.031,57.997,38.231,71.153,34.981,74.403z   M50.125,88.067c-3.584,0-6.5-4.523-6.5-10.084c0-4.596,4.495-18.706,6.5-24.772c2.005,6.066,6.5,20.177,6.5,24.772  C56.625,83.544,53.709,88.067,50.125,88.067z M78.175,71.788c0.414,2.146-0.005,3.975-1.18,5.149  c-2.534,2.533-7.794,1.398-11.727-2.534c-3.25-3.25-10.049-16.406-12.921-22.113c5.708,2.872,18.863,9.671,22.113,12.921  C76.415,67.164,77.733,69.5,78.175,71.788z M88.125,50.067c0,3.584-4.523,6.5-10.084,6.5c-4.596,0-18.707-4.495-24.772-6.5  c6.066-2.005,20.176-6.5,24.772-6.5C83.602,43.567,88.125,46.483,88.125,50.067z M65.269,25.731c2.514-2.514,5.57-3.885,8.11-3.885  c1.433,0,2.702,0.437,3.616,1.351c1.174,1.175,1.593,3.003,1.18,5.149c-0.441,2.288-1.76,4.624-3.714,6.577  c-3.25,3.25-16.406,10.05-22.113,12.921C55.219,42.138,62.019,28.98,65.269,25.731z M50.125,12.067c3.584,0,6.5,4.523,6.5,10.084  c0,4.596-4.495,18.706-6.5,24.772c-2.005-6.066-6.5-20.177-6.5-24.772C43.625,16.591,46.541,12.067,50.125,12.067z M22.075,28.347  c-0.414-2.146,0.005-3.975,1.18-5.149c0.914-0.914,2.183-1.351,3.616-1.351c2.54,0,5.597,1.371,8.11,3.885  c3.25,3.249,10.049,16.406,12.921,22.113c-5.708-2.871-18.863-9.671-22.113-12.921C23.835,32.971,22.517,30.635,22.075,28.347z   M22.209,43.567c4.596,0,18.707,4.495,24.772,6.5c-6.066,2.005-20.176,6.5-24.772,6.5c-5.561,0-10.084-2.916-10.084-6.5  S16.648,43.567,22.209,43.567z"/></svg>
