<?xml version="1.0" encoding="UTF-8"?>
<svg width="81px" height="81px" viewBox="0 0 81 81" version="1.1" xmlns="http://www.w3.org/2000/svg" xmlns:xlink="http://www.w3.org/1999/xlink">

    <g id="Page-1" stroke="none" stroke-width="1" fill="none" fill-rule="evenodd">
        <g id="flower" fill="#ffffff" fill-rule="nonzero">
            <path d="M12.209,48.567 C15.392,48.567 22.481,46.668 28.764,44.773 C22.981,47.876 16.625,51.546 14.375,53.797 C12.142,56.029 10.627,58.734 10.111,61.409 C9.568,64.227 10.182,66.693 11.84,68.351 C13.123,69.634 14.887,70.249 16.841,70.249 C19.936,70.249 23.507,68.704 26.395,65.816 C28.646,63.565 32.316,57.209 35.419,51.425 C33.524,57.709 31.624,64.799 31.624,67.982 C31.624,74.645 35.437,80.066 40.124,80.066 C44.811,80.066 48.624,74.645 48.624,67.982 C48.624,64.799 46.725,57.709 44.829,51.425 C47.932,57.209 51.602,63.565 53.853,65.816 C56.741,68.704 60.312,70.249 63.407,70.249 C65.361,70.249 67.125,69.634 68.408,68.351 C70.067,66.693 70.68,64.227 70.137,61.409 C69.621,58.733 68.107,56.029 65.873,53.797 C63.622,51.546 57.267,47.876 51.484,44.773 C57.768,46.668 64.856,48.567 68.039,48.567 C74.702,48.567 80.123,44.754 80.123,40.067 C80.123,35.38 74.702,31.567 68.039,31.567 C64.856,31.567 57.767,33.466 51.484,35.361 C57.267,32.258 63.623,28.588 65.873,26.337 C68.106,24.105 69.621,21.4 70.137,18.725 C70.68,15.907 70.066,13.441 68.408,11.783 C65.093,8.468 58.565,9.606 53.853,14.317 C51.602,16.567 47.932,22.923 44.829,28.707 C46.724,22.423 48.624,15.334 48.624,12.151 C48.624,5.488 44.811,0.067 40.124,0.067 C35.437,0.067 31.624,5.488 31.624,12.151 C31.624,15.334 33.523,22.423 35.419,28.707 C32.316,22.923 28.646,16.567 26.395,14.317 C21.683,9.606 15.154,8.467 11.84,11.783 C10.181,13.441 9.568,15.907 10.111,18.725 C10.627,21.401 12.141,24.105 14.375,26.337 C16.626,28.588 22.981,32.258 28.764,35.361 C22.48,33.466 15.392,31.567 12.209,31.567 C5.546,31.567 0.125,35.38 0.125,40.067 C0.125,44.754 5.546,48.567 12.209,48.567 Z M24.981,64.403 C21.049,68.335 15.789,69.471 13.254,66.937 C12.08,65.762 11.661,63.934 12.074,61.788 C12.515,59.5 13.834,57.164 15.788,55.211 C19.038,51.961 32.194,45.162 37.901,42.29 C35.031,47.997 28.231,61.153 24.981,64.403 Z M40.125,78.067 C36.541,78.067 33.625,73.544 33.625,67.983 C33.625,63.387 38.12,49.277 40.125,43.211 C42.13,49.277 46.625,63.388 46.625,67.983 C46.625,73.544 43.709,78.067 40.125,78.067 Z M68.175,61.788 C68.589,63.934 68.17,65.763 66.995,66.937 C64.461,69.47 59.201,68.335 55.268,64.403 C52.018,61.153 45.219,47.997 42.347,42.29 C48.055,45.162 61.21,51.961 64.46,55.211 C66.415,57.164 67.733,59.5 68.175,61.788 Z M78.125,40.067 C78.125,43.651 73.602,46.567 68.041,46.567 C63.445,46.567 49.334,42.072 43.269,40.067 C49.335,38.062 63.445,33.567 68.041,33.567 C73.602,33.567 78.125,36.483 78.125,40.067 Z M55.269,15.731 C57.783,13.217 60.839,11.846 63.379,11.846 C64.812,11.846 66.081,12.283 66.995,13.197 C68.169,14.372 68.588,16.2 68.175,18.346 C67.734,20.634 66.415,22.97 64.461,24.923 C61.211,28.173 48.055,34.973 42.348,37.844 C45.219,32.138 52.019,18.98 55.269,15.731 Z M40.125,2.067 C43.709,2.067 46.625,6.59 46.625,12.151 C46.625,16.747 42.13,30.857 40.125,36.923 C38.12,30.857 33.625,16.746 33.625,12.151 C33.625,6.591 36.541,2.067 40.125,2.067 Z M12.075,18.347 C11.661,16.201 12.08,14.372 13.255,13.198 C14.169,12.284 15.438,11.847 16.871,11.847 C19.411,11.847 22.468,13.218 24.981,15.732 C28.231,18.981 35.03,32.138 37.902,37.845 C32.194,34.974 19.039,28.174 15.789,24.924 C13.835,22.971 12.517,20.635 12.075,18.347 Z M12.209,33.567 C16.805,33.567 30.916,38.062 36.981,40.067 C30.915,42.072 16.805,46.567 12.209,46.567 C6.648,46.567 2.125,43.651 2.125,40.067 C2.125,36.483 6.648,33.567 12.209,33.567 Z" id="Shape"></path>
        </g>
    </g>
</svg>
