<?xml version="1.0" encoding="UTF-8"?>
<svg width="99px" height="81px" viewBox="0 0 99 81" version="1.1" xmlns="http://www.w3.org/2000/svg" xmlns:xlink="http://www.w3.org/1999/xlink">
    <!-- Generator: Sketch 50.2 (55047) - http://www.bohemiancoding.com/sketch -->
    <title>envelope</title>
    <desc>Created with Sketch.</desc>
    <defs></defs>
    <g id="Page-1" stroke="none" stroke-width="1" fill="none" fill-rule="evenodd">
        <g id="HOME-PAGE-2ND" transform="translate(-1123.000000, -5050.000000)" fill="#C5802F" fill-rule="nonzero">
            <g id="Group" transform="translate(637.000000, 5045.000000)">
                <g id="envelope" transform="translate(486.000000, 5.000000)">
                    <path d="M86.9142882,0 L12.1061382,0 C5.42830223,0 0,5.8360522 0,13.0154976 L0,67.9845024 C0,75.1639478 5.42830223,81 12.1061382,81 L86.893804,81 C93.57164,81 98.9999422,75.1639478 98.9999422,67.9845024 L98.9999422,13.0375204 C99.0204264,5.85807504 93.5921241,0 86.9142882,0 Z M93.4897033,67.9845024 C93.4897033,71.8825449 90.5399844,75.0538336 86.9142882,75.0538336 L12.1061382,75.0538336 C8.48044198,75.0538336 5.53072303,71.8825449 5.53072303,67.9845024 L5.53072303,13.0375204 C5.53072303,9.13947798 8.48044198,5.96818923 12.1061382,5.96818923 L86.893804,5.96818923 C90.5195002,5.96818923 93.4692192,9.13947798 93.4692192,13.0375204 L93.4692192,67.9845024 L93.4897033,67.9845024 Z" id="Shape"></path>
                    <path d="M61.8889736,39.3065286 L86.0412891,16.1630877 C87.1651278,15.071416 87.2672949,13.215574 86.2456234,11.9929017 C85.2239518,10.7920627 83.4871102,10.6828956 82.342838,11.7745673 L49.0363455,43.7168825 L42.5385144,37.516187 C42.518081,37.4943535 42.4976476,37.4725201 42.4976476,37.4506867 C42.3546136,37.2978526 42.2115796,37.166852 42.0481121,37.0358514 L15.6072524,11.7527339 C14.4629803,10.6610621 12.7261386,10.7702293 11.7044671,11.9929017 C10.6827955,13.215574 10.7849627,15.071416 11.9292348,16.1630877 L36.3676183,39.5030295 L12.031402,63.8473094 C10.9279967,64.9608146 10.8666964,66.8166565 11.9088014,68.0174954 C12.460504,68.6288316 13.1961075,68.9563331 13.931711,68.9563331 C14.6060143,68.9563331 15.2803175,68.6943319 15.8115867,68.1703295 L40.5156048,43.4767147 L47.2177701,49.8739111 C47.7490394,50.3760801 48.4029091,50.6162479 49.0567789,50.6162479 C49.7106487,50.6162479 50.384952,50.3542467 50.8957877,49.8520777 L57.781854,43.2583803 L82.342838,68.1921629 C82.8741072,68.7379988 83.5688439,69 84.2431471,69 C84.9787506,69 85.6939207,68.6943319 86.2456234,68.0829957 C87.2877283,66.9039903 87.2468615,65.0263149 86.1434562,63.9128097 L61.8889736,39.3065286 Z" id="Shape"></path>
                </g>
            </g>
        </g>
    </g>
</svg>