<?xml version="1.0" encoding="UTF-8"?>
<svg width="78px" height="81px" viewBox="0 0 78 81" version="1.1" xmlns="http://www.w3.org/2000/svg" xmlns:xlink="http://www.w3.org/1999/xlink">
    <!-- Generator: Sketch 50.2 (55047) - http://www.bohemiancoding.com/sketch -->
    <title>Shape</title>
    <desc>Created with Sketch.</desc>
    <defs></defs>
    <g id="Page-1" stroke="none" stroke-width="1" fill="none" fill-rule="evenodd">
        <g id="HOME-PAGE-2ND" transform="translate(-967.000000, -5050.000000)" fill="#C5802F" fill-rule="nonzero">
            <g id="Group" transform="translate(637.000000, 5045.000000)">
                <g id="pinterest" transform="translate(330.000000, 5.000000)">
                    <path d="M40.3051004,0 C13.9930764,0 0,14.2262694 0,29.7384719 C0,36.9326103 4.76436649,45.9037666 12.3909532,48.7490205 C13.5490422,49.1894779 14.1790907,49.002157 14.4371105,48.0959284 C14.6651281,47.4073972 15.6672052,44.0913095 16.1532426,42.5269262 C16.3032541,42.025716 16.2252481,41.5903213 15.7452112,41.1194874 C13.2130164,38.6488755 11.2028618,34.1481092 11.2028618,29.9257929 C11.2028618,19.1067404 21.397646,8.60157709 38.7449804,8.60157709 C53.7461343,8.60157709 64.2409416,16.8234495 64.2409416,28.5841697 C64.2409416,41.8738341 55.9063005,51.0677505 45.0754673,51.0677505 C39.0810062,51.0677505 34.6166628,47.0985707 36.0327718,42.1877233 C37.7429033,36.340271 41.0971613,30.0523612 41.0971613,25.8351077 C41.0971613,22.0532489 38.5649665,18.9244821 33.3925687,18.9244821 C27.2900992,18.9244821 22.3397184,24.0226506 22.3397184,30.8674606 C22.3397184,35.2163451 24.1638588,38.1527281 24.1638588,38.1527281 C24.1638588,38.1527281 18.1273944,58.72766 17.0053081,62.5702715 C15.1091622,69.0758787 17.2633279,79.6114183 17.4493423,80.5176469 C17.563351,81.0188571 18.2294023,81.1758017 18.6014309,80.7657206 C19.1954766,80.1075658 26.4920378,71.3237305 28.5381952,64.9750679 C29.2822525,62.6614006 32.3364874,53.2801632 32.3364874,53.2801632 C34.346642,56.3431145 40.1490884,58.9099182 46.3295638,58.9099182 C64.7149781,58.9099182 78,45.2759882 78,28.3563468 C77.9339949,12.1353621 61.4807293,0 40.3051004,0 Z" id="Shape"></path>
                </g>
            </g>
        </g>
    </g>
</svg>